<svg width="505" height="691" viewBox="0 0 505 691" fill="none" xmlns="http://www.w3.org/2000/svg">
<rect x="29" width="350" height="604" rx="12" fill="#EEEEEE"/>
<path d="M64.1667 621.3L56.0565 614.119C47.4691 596.166 45.7993 577.973 45.7993 577.973C43.6525 570.074 25.285 568.398 26.9548 584.915C27.4319 591.378 28.1475 597.602 28.386 603.108C28.386 603.108 17.8904 597.602 13.8352 605.741C13.3581 606.459 13.1196 607.417 13.1196 608.374C9.78006 607.177 3.57807 605.98 0.715614 611.965C0 613.88 0 615.795 0 617.71L1.19269 627.763C1.9083 633.987 4.77076 639.732 9.54152 644.041L26.0007 659.122L55.3408 689.044C78.2405 682.102 121.177 668.697 104.48 654.574L64.1667 621.3Z" fill="#C25D87"/>
<path fill-rule="evenodd" clip-rule="evenodd" d="M64.5953 621.3L58.3519 615.795C56.9111 614.598 55.9506 613.162 55.2302 611.725C47.546 594.49 46.1052 577.973 46.1052 577.973C43.944 570.074 25.4539 568.398 27.1348 584.915C27.6151 590.9 28.0954 596.405 28.3355 601.672C28.3355 602.15 28.3355 602.868 28.3355 603.347C28.3355 603.347 27.8552 603.108 26.8947 602.629C23.773 601.432 16.8092 599.757 13.9276 605.98C13.6875 606.459 13.4474 606.698 13.4474 607.177C13.2072 607.656 13.2072 608.135 13.2072 608.613C12.727 608.374 12.2467 608.374 11.7664 608.135C8.4046 607.177 3.36184 606.938 0.720394 612.204C0 613.88 0 615.795 0 617.71L1.20066 627.763C1.92105 633.987 4.80263 639.732 9.60525 644.041L26.1743 659.122L55.7105 689.044C64.5953 669.654 121.987 668.697 105.178 654.574L64.5953 621.3ZM103.737 654.574C103.737 654.574 103.737 654.574 105.178 654.574H103.737C103.737 655.052 103.977 655.292 104.217 655.77C107.819 658.643 108.299 663.67 106.378 669.654C104.457 675.639 92.6907 662.712 87.1677 667.739C81.6447 673.005 82.6052 657.685 75.8815 658.404C69.398 659.122 62.4341 695.267 56.4309 688.086L26.8947 658.164L10.3256 643.084C6.00328 639.254 3.12171 633.748 2.40131 627.763L1.20066 617.71C0.960525 615.795 1.20066 614.358 1.92105 612.922C3.12171 610.528 5.04276 609.571 6.96381 609.332C8.88486 609.092 11.046 609.571 12.727 610.05C13.2072 610.289 13.6875 610.05 13.9276 609.81C14.4079 609.571 14.648 609.092 14.648 608.853C14.648 607.895 14.8881 607.417 15.1283 606.698C15.8487 605.023 17.0493 604.065 18.25 603.587C19.4506 603.108 20.8914 602.868 22.3322 603.108C23.773 603.347 24.9737 603.587 26.1743 604.065C26.6546 604.305 27.1348 604.305 27.375 604.544C27.6151 604.544 27.6151 604.544 27.6151 604.783C28.0954 605.023 28.5756 605.023 29.0559 604.783C29.5362 604.544 29.7763 604.065 29.7763 603.587C29.5362 598.081 29.0559 591.857 28.3355 585.155C27.8552 581.325 28.8158 578.691 30.0164 577.016C31.2171 575.34 33.1381 574.383 35.0592 574.143C36.9802 573.904 39.1414 574.383 41.0625 575.101C42.7434 576.058 43.944 577.255 44.4243 578.691C44.4243 578.931 44.4243 578.931 44.4243 579.41C44.4243 579.888 44.6644 580.846 44.6644 581.803C44.9046 583.718 45.3848 586.591 46.1052 590.181C47.546 597.123 50.1875 606.22 54.5098 615.316C54.5098 615.555 54.7499 615.555 54.7499 615.795L62.9144 622.737C65.3157 624.652 89.569 642.844 103.737 654.574Z" fill="#50314D"/>
<path fill-rule="evenodd" clip-rule="evenodd" d="M17.2422 626.889L13.4106 608.58H14.608L18.4396 626.889C19.158 630.021 20.5949 632.671 22.7502 634.839L36.4002 648.089L35.6818 648.812L21.7923 635.321C19.637 632.912 17.9606 630.262 17.2422 626.889Z" fill="#50314D"/>
<path d="M21.5383 635.479C19.2161 633.14 17.5905 630.333 17.1261 627.059L13.4106 609.048L15.2684 608.58L18.9839 626.591C19.6805 629.398 20.8416 631.971 22.9316 634.076L36.4003 647.409L35.2392 648.812L21.5383 635.479Z" fill="#50314D"/>
<path d="M17.4817 627.04L13.6501 609.538H13.4106L17.2422 627.04H16.7633H17.2422C17.9606 630.115 19.3975 632.953 21.7923 635.082L35.2029 647.854L35.4424 647.618L21.7923 635.082C19.637 632.953 18.2001 630.115 17.4817 627.04Z" fill="#50314D"/>
<path fill-rule="evenodd" clip-rule="evenodd" d="M32.2825 620.916L28.737 603.772L29.6825 602.833L33.4644 620.681C34.1734 623.734 35.5916 626.317 37.7189 628.431L46.9372 638.529L46.2281 639.233L37.0098 629.135C34.4098 627.022 32.9916 624.203 32.2825 620.916Z" fill="#50314D"/>
<path d="M46.5309 640.191C46.5309 640.191 46.2936 640.191 46.2936 639.949L37.0408 629.551C34.6683 627.132 33.0076 624.231 32.5331 620.845L28.737 603.433C28.737 603.192 28.737 603.192 28.737 602.95L29.686 601.982C29.686 601.982 29.9233 601.741 30.1606 601.982C30.3978 601.982 30.3978 602.224 30.3978 602.224L34.1938 620.603C34.9056 623.505 36.3291 626.165 38.4643 628.342L47.7171 638.74C47.9544 638.982 47.9544 639.224 47.7171 639.224L47.0054 639.949C46.7681 640.191 46.7681 640.191 46.5309 640.191C46.7681 640.191 46.5309 640.191 46.5309 640.191ZM37.7526 628.825C35.6173 626.407 33.9566 623.747 33.4821 620.603L29.9233 602.95L29.4488 603.433L33.0076 620.845C33.7193 623.989 35.3801 626.649 37.7526 628.825L46.5309 639.224L46.7681 638.982L37.7526 628.825Z" fill="#50314D"/>
<path d="M15.5658 645.651C28.0529 622.195 61.1917 561.88 61.1917 561.88C79.6822 531.005 112.581 528.85 148.841 529.09L189.665 532.441L177.177 564.752L151.003 565.231C127.229 565.47 104.896 576.241 90.2482 594.91L75.84 622.434C74.159 625.546 85.2053 691.127 82.5638 688.733C82.5638 688.733 16.0461 689.451 15.5658 688.733C14.3651 686.34 16.0461 677.723 13.1645 665.038C11.7236 658.336 12.4441 651.395 15.5658 645.651Z" fill="#8A1332"/>
<path d="M97.2618 621.206C94.6362 615.007 90.3398 609.761 84.8499 606.185L70.2898 588.542C66.4708 584.727 60.2649 584.489 56.6845 588.542C55.4911 589.734 54.775 591.403 54.775 593.31L65.0387 624.305L39.2601 661.26C36.3958 665.314 36.8732 670.797 39.9762 674.374C44.0339 678.904 49.7625 684.626 55.7297 688.917C76.0184 689.394 88.9076 688.441 104.9 687.487C110.628 687.248 97.2618 663.406 97.2618 657.446V621.206Z" fill="#C25D87"/>
<path d="M372.685 649.77H238.45C229.867 649.77 223.191 642.855 223.191 634.51V500.271C223.191 491.687 230.105 485.011 238.45 485.011H372.685C381.268 485.011 387.944 491.925 387.944 500.271V634.51C388.183 642.855 381.268 649.77 372.685 649.77Z" fill="#8A1332"/>
<path fill-rule="evenodd" clip-rule="evenodd" d="M238.065 488.815C231.35 488.815 226.074 494.062 226.074 500.739V635.001C226.074 641.678 231.35 646.925 238.065 646.925H373.077C379.791 646.925 385.067 641.44 385.067 635.001V500.739C385.067 494.062 379.791 488.815 373.077 488.815H238.065ZM219.359 500.739C219.359 490.484 227.753 482.138 238.065 482.138H373.077C383.388 482.138 391.782 490.484 391.782 500.739V635.001C391.782 645.017 383.388 653.602 373.077 653.602H238.065C227.753 653.602 219.359 645.255 219.359 635.001V500.739Z" fill="#8A1332"/>
<path d="M465.356 649.77H355.566C346.496 649.77 339.097 642.637 339.097 633.365V501.415C339.097 492.381 346.257 485.011 355.566 485.011H465.356C474.426 485.011 481.824 492.143 481.824 501.415V633.127C481.824 642.4 474.187 649.77 465.356 649.77Z" fill="#8A1332"/>
<path d="M485.472 649.77H375.682C366.612 649.77 359.213 642.637 359.213 633.365V501.415C359.213 492.381 366.373 485.011 375.682 485.011H485.472C494.542 485.011 501.94 492.143 501.94 501.415V633.127C501.94 642.4 494.542 649.77 485.472 649.77Z" fill="#E4122C"/>
<path fill-rule="evenodd" clip-rule="evenodd" d="M375.018 487.655C367.595 487.655 361.847 493.41 361.847 500.844V633.938C361.847 641.372 367.595 647.127 375.018 647.127H485.177C492.601 647.127 498.348 641.132 498.348 633.698V500.844C498.348 493.41 492.601 487.655 485.177 487.655H375.018ZM355.381 500.844C355.381 489.813 364.003 481.18 375.018 481.18H485.177C496.193 481.18 504.814 489.813 504.814 500.844V633.698C504.814 644.489 496.193 653.602 485.177 653.602H375.018C364.003 653.602 355.381 644.969 355.381 633.938V500.844Z" fill="#E4122C"/>
<path fill-rule="evenodd" clip-rule="evenodd" d="M417.461 566.863C429.716 566.624 438.126 555.625 438.126 546.54C438.126 540.085 431.638 537.215 425.631 537.215C412.174 537.455 404.965 549.409 404.965 557.538C405.206 563.994 411.453 566.863 417.461 566.863ZM471.288 546.062C471.288 555.147 463.117 566.145 450.622 566.385C444.614 566.385 438.367 563.515 438.126 557.06C438.126 548.931 445.335 536.976 458.792 536.737C464.799 536.976 471.288 539.606 471.288 546.062ZM426.832 596.032C437.165 596.749 447.258 593.402 454.947 586.707L458.071 595.075L462.156 573.557L441.731 573.796L448.7 578.817C445.095 581.925 441.01 584.555 436.444 585.99C431.879 587.664 427.073 588.381 422.267 587.903C417.941 587.425 413.856 585.99 410.492 583.599C406.888 581.208 404.004 577.861 402.082 574.035H401.361C402.562 580.013 405.686 585.273 410.252 589.098C415.058 593.402 420.825 595.793 426.832 596.032Z" fill="white"/>
<path fill-rule="evenodd" clip-rule="evenodd" d="M325.882 483.095V473.803C325.882 460.937 336.148 450.692 349.04 450.692C363.604 450.692 375.302 462.367 375.302 476.901V483.095H389.866V476.901C389.866 454.266 371.482 436.158 349.04 436.158C328.269 436.158 311.318 452.836 311.318 473.803V483.095H325.882Z" fill="#8A1332"/>
<path d="M291.668 535.747L201.586 540.986C164.212 516.455 127.078 523.124 112.463 555.991L80.839 649.828C79.4015 653.639 82.2765 657.688 86.3493 657.688L322.813 660.307L291.668 535.747Z" fill="#E4122C"/>
<path d="M351.796 631.711L353.466 690.002L70.8847 689.522L93.5389 614.2L283.357 558.787C319.127 557.828 352.035 595.729 351.796 631.711Z" fill="#E4122C"/>
<path fill-rule="evenodd" clip-rule="evenodd" d="M64.366 622.952C64.8304 622.993 65.1743 623.408 65.1341 623.879L62.9905 648.989C62.9504 649.459 62.5413 649.808 62.077 649.767C61.6126 649.726 61.2687 649.312 61.3089 648.841L63.4525 623.731C63.4926 623.26 63.9017 622.912 64.366 622.952Z" fill="#50314D"/>
<path d="M202.109 674.578L213.813 682.103C227.19 683.148 228.235 647.197 257.288 657.021C252.481 644.689 250.491 628.697 250.491 628.697C248.192 622.844 240.985 610.62 235.76 607.066L219.457 596.616C214.231 595.153 209.215 598.706 208.797 604.14L202.109 674.578Z" fill="#C25D87"/>
<path d="M217.158 621.489L209.634 614.8C201.691 598.079 200.019 581.149 200.019 581.149C197.929 573.833 180.999 572.161 182.462 587.419C183.089 593.481 183.507 599.333 183.716 604.349C183.716 604.349 173.892 599.333 170.13 606.858C169.712 607.694 169.503 608.321 169.503 609.366C166.368 608.321 160.724 607.276 158.007 612.71C157.171 614.173 156.962 616.054 157.171 617.935L158.216 627.341C158.843 633.193 161.561 638.419 165.95 642.39L180.163 655.141L208.798 684.402C223.638 699.033 270.248 665.382 254.781 652.423L217.158 621.489Z" fill="#C25D87"/>
<path fill-rule="evenodd" clip-rule="evenodd" d="M172.846 626.711L169.293 609.781L170.338 609.572L173.891 626.502C174.518 629.429 175.772 631.728 177.863 633.818L190.612 646.15L189.985 646.777L177.236 634.445C174.936 632.564 173.473 629.847 172.846 626.711Z" fill="#50314D"/>
<path d="M176.818 634.865C174.519 632.566 173.056 629.849 172.429 626.922L168.876 609.783L170.548 609.365L174.101 626.504C174.728 629.222 175.982 631.73 178.072 633.611C178.072 633.611 189.15 644.48 191.031 646.152C191.867 646.988 190.613 648.242 189.777 647.406C187.06 644.898 176.818 634.865 176.818 634.865ZM177.654 634.238C175.564 632.148 174.101 629.64 173.474 626.713L169.921 610.201H169.712L173.265 626.713H172.847H173.265C173.892 629.64 175.355 632.148 177.654 634.238L189.986 646.57L190.195 646.361L177.654 634.238Z" fill="#50314D"/>
<path fill-rule="evenodd" clip-rule="evenodd" d="M187.06 621.279L183.716 604.976L184.552 604.14L188.105 621.07C188.732 623.996 189.986 626.295 192.076 628.385L200.855 638L200.228 638.627L191.449 629.012C189.15 626.922 187.687 624.205 187.06 621.279Z" fill="#50314D"/>
<path d="M200.437 639.674C198.138 637.375 191.031 629.433 191.031 629.433C188.732 627.133 187.269 624.416 186.642 621.49L183.298 605.187C183.298 604.978 183.298 604.978 183.298 604.769L184.134 603.933C184.134 603.933 184.343 603.724 184.552 603.933C184.761 603.933 184.761 604.142 184.761 604.142L188.314 621.072C188.941 623.789 190.195 626.297 192.285 628.178L201.482 638.42C202.527 639.465 201.482 640.51 200.437 639.674ZM191.658 628.596C189.568 626.506 188.105 623.998 187.478 621.072L184.343 604.978L184.134 605.187L187.478 621.281C188.105 623.998 189.359 626.715 191.658 628.596L200.019 638.211L200.228 638.002L191.658 628.596Z" fill="#50314D"/>
<path d="M209.634 683.774C209.634 683.774 218.83 640.717 229.908 633.82C230.535 634.238 231.58 633.611 230.744 632.775C230.117 631.521 232.416 627.758 232.416 627.758L247.883 623.996L288.99 689.836H213.187L209.634 683.774Z" fill="#C25D87"/>
<path d="M200.855 588.463C202.109 585.119 214.023 566.308 214.023 566.308C231.162 537.673 261.887 535.583 295.329 535.792L321.665 536.21L325.687 569.443C325.687 569.443 317.945 569.305 297.42 569.443C276.894 569.581 272.896 572.882 269.222 574.719C264.582 577.039 242.867 592.853 235.133 608.947C230.744 617.935 225.519 628.803 225.519 628.594L212.351 617.307C210.47 615.635 209.006 613.545 207.961 611.246C206.08 606.857 202.945 598.914 200.855 588.463Z" fill="#8A1332"/>
<path d="M171.802 647.824C167.831 659.32 161.77 690.046 161.77 690.046H213.605L210.47 685.447C210.47 685.447 182.253 655.14 171.802 647.824Z" fill="#8A1332"/>
<path d="M240.6 461.37C239.555 462.833 175.597 445.067 175.597 445.067L161.384 441.514C161.384 441.514 151.351 495.648 152.187 507.353C153.023 519.058 233.494 511.952 233.494 511.952C233.494 511.952 241.645 459.907 240.6 461.37Z" fill="#EA3223"/>
<path d="M163.265 465.548L164.31 445.274C164.519 442.766 167.445 441.721 169.117 443.393L175.596 450.081C178.314 452.799 181.867 454.262 185.629 454.262L208.203 454.889C213.846 455.098 217.399 462.622 217.399 468.266L219.072 483.106L183.121 484.569L163.265 465.548Z" fill="#310000"/>
<path d="M183.121 562.95L242.481 542.049L227.85 496.065L168.908 501.5L174.761 558.77C175.179 564.204 177.896 564.622 183.121 562.95Z" fill="#C25D87"/>
<path d="M163.265 465.55L161.384 505.263C161.175 509.025 164.519 512.16 168.281 511.742C179.359 510.279 208.669 516.793 211.177 499.863C212.222 492.339 218.863 495.439 219.072 486.242V483.316C219.072 479.972 217.4 476.837 214.682 475.373C211.338 473.492 207.158 473.701 204.232 476.001C204.232 476.001 199.006 480.181 199.006 476.21C199.006 468.267 193.99 467.013 187.302 467.013L163.265 465.55Z" fill="#C25D87"/>
<path d="M179.15 479.969C180.189 479.969 181.031 479.127 181.031 478.088C181.031 477.049 180.189 476.207 179.15 476.207C178.111 476.207 177.269 477.049 177.269 478.088C177.269 479.127 178.111 479.969 179.15 479.969Z" fill="black"/>
<path d="M190.855 480.596C191.894 480.596 192.736 479.754 192.736 478.715C192.736 477.676 191.894 476.834 190.855 476.834C189.816 476.834 188.974 477.676 188.974 478.715C188.974 479.754 189.816 480.596 190.855 480.596Z" fill="black"/>
<path d="M188.347 496.273C173.925 499.199 171.208 495.228 170.998 492.72C170.58 490.212 174.134 490.63 176.642 490.839C185.002 491.675 191.482 488.331 191.482 488.331C192.318 488.122 193.154 487.913 194.199 487.913C197.125 487.704 198.379 491.466 195.871 493.138C192.527 495.228 188.347 496.273 188.347 496.273Z" fill="#732262"/>
<path d="M179.359 494.182C176.851 494.182 174.761 493.973 174.761 493.973C174.552 493.973 174.343 493.764 174.343 493.555C174.343 493.346 174.552 493.137 174.761 493.137C174.97 493.137 186.257 494.391 191.482 490.629C191.691 490.42 191.9 490.629 192.109 490.629C192.318 490.838 192.109 491.047 192.109 491.256C188.765 493.555 183.331 494.182 179.359 494.182Z" fill="black"/>
<path d="M241.854 446.111C232.658 433.988 215.1 426.881 189.601 425C174.552 423.955 163.474 431.062 161.593 435.033C160.548 436.914 158.457 445.066 158.457 445.066L213.428 475.373C213.428 475.373 214.682 475.582 215.1 479.762C215.727 491.467 206.113 501.081 194.617 500.872L154.277 499.827C153.232 499.827 152.396 500.663 152.396 501.499L152.187 513.831C152.605 521.774 159.084 528.044 166.818 528.044C166.818 528.044 232.867 520.311 233.285 520.311C239.137 519.684 244.78 512.159 245.407 506.098L248.125 470.565C248.543 469.102 250.424 457.397 241.854 446.111Z" fill="#EA3223"/>
<g style="mix-blend-mode:multiply">
<path d="M221.033 490.191C216.204 488.396 231.854 493.992 237.321 488.163C248.058 476.715 242.319 469.665 233.197 459.783L196.746 426.885C193.615 421.947 178.405 412.968 169.235 419.029C156.262 427.783 148.433 436.761 146.644 450.229C145.973 456.289 149.328 461.901 155.143 464.145L221.033 490.191Z" fill="#B3B3B3"/>
</g>
<path d="M227.269 487.543C226.015 487.543 224.761 487.334 223.716 486.707C221.625 485.662 220.162 483.99 219.535 481.9C218.072 477.51 220.162 472.703 224.552 471.24C228.941 469.777 233.748 471.867 235.211 476.256C236.047 478.346 235.838 480.645 235.002 482.527C233.957 484.617 232.285 486.08 230.195 486.707C229.15 487.334 228.105 487.543 227.269 487.543ZM227.269 474.584C226.851 474.584 226.224 474.584 225.806 474.793C223.507 475.629 222.253 478.346 223.089 480.645C223.507 481.691 224.343 482.736 225.388 483.154C226.433 483.572 227.687 483.781 228.941 483.363C229.986 482.945 231.031 482.109 231.449 481.063C231.867 480.018 232.076 478.764 231.658 477.51C230.822 475.838 228.941 474.584 227.269 474.584Z" fill="#EA3223"/>
<g opacity="0.92">
<path opacity="0.92" d="M154.904 458.44C153.441 458.44 152.187 457.186 151.978 455.723C151.978 455.305 151.56 444.436 164.519 434.612C165.773 433.567 167.654 433.776 168.49 435.239C169.535 436.493 169.326 438.374 167.863 439.21C157.412 447.153 157.621 455.096 157.621 455.514C158.039 456.977 156.785 458.231 154.904 458.44C155.113 458.44 155.113 458.44 154.904 458.44Z" fill="white"/>
</g>
<path d="M175.596 434.194C177.559 434.194 179.15 432.604 179.15 430.641C179.15 428.679 177.559 427.088 175.596 427.088C173.634 427.088 172.043 428.679 172.043 430.641C172.043 432.604 173.634 434.194 175.596 434.194Z" fill="white"/>
<path d="M172.879 503.172H163.265C160.338 503.172 157.83 505.471 157.83 508.397V516.758V516.967C158.039 519.057 159.92 520.729 162.22 520.102C168.281 518.848 173.506 515.504 177.06 510.905C179.359 507.77 176.851 503.172 172.879 503.172Z" fill="#F78DA2"/>
<path d="M215 312H364" stroke="#C1C1C1" stroke-width="4" stroke-linecap="round" stroke-linejoin="round"/>
<g opacity="0.6">
<path d="M68.4374 257.802L67.9552 319.485C67.9552 324.96 72.2948 329.309 77.7595 329.309L157.535 329.47L165.999 248.139C165.838 248.139 68.4374 254.581 68.4374 257.802Z" fill="#726F6F"/>
<path d="M214.056 320.452V264.567L147.355 263.439L147.033 329.471H205.056C210.038 329.471 214.056 325.444 214.056 320.452Z" fill="#999999"/>
<path d="M167.446 291.622L167.285 329.63H196.055V290.816C196.055 289.045 194.609 287.434 192.68 287.434H171.143C171.303 287.434 167.285 287.273 167.446 291.622Z" fill="#DCDCDC"/>
<path d="M93.1894 289.691C88.5283 289.691 84.6708 293.557 84.6708 298.227V306.602C84.6708 311.272 88.5283 315.138 93.1894 315.138C97.8505 315.138 101.708 311.272 101.708 306.602V298.227C101.869 293.557 98.1719 289.691 93.1894 289.691Z" fill="#DCDCDC"/>
<path d="M120.995 289.691C116.334 289.691 112.477 293.557 112.477 298.227V306.602C112.477 311.272 116.334 315.138 120.995 315.138C125.656 315.138 129.514 311.272 129.514 306.602V298.227C129.835 293.557 125.978 289.691 120.995 289.691Z" fill="#DCDCDC"/>
<path d="M58.4722 261.651C58.9543 260.362 75.8307 237.815 83.8671 227.025C85.6351 224.609 88.3675 223.32 91.0998 223.32H146.39C151.694 238.942 128.549 277.917 127.907 271.475H127.746C126.942 277.917 123.586 261.651 117.478 261.651C111.371 261.651 104.762 278.078 103.958 271.475H103.797C102.994 278.078 98.0111 283.071 91.9035 283.071C85.7958 283.071 80.8133 277.917 80.0097 271.475L79.5443 270.268C78.7407 277.193 74.3126 262.295 67.7227 261.651C62.0973 261.006 56.7042 277.434 56.0612 271.153C55.7398 267.449 56.7042 264.227 58.4722 261.651Z" fill="#EA0029"/>
<path d="M115.852 282.909C121.959 282.909 126.942 277.917 127.746 271.314L129.086 270.025C129.246 271.314 129.192 271.958 130.639 270.025L136.934 223.159H118.584L103.797 271.314C104.761 277.917 109.744 282.909 115.852 282.909Z" fill="white"/>
<path d="M91.0999 223.32C88.3675 223.32 85.6352 224.77 83.8671 227.025C75.8308 237.654 58.9544 260.362 58.4722 261.651C56.7042 264.227 55.7398 267.448 56.0612 270.992C56.5434 277.273 61.2046 282.265 66.83 282.909C73.4199 283.554 78.0728 278.116 79.5443 272.721L80.0097 271.314L101.547 223.32H91.0999Z" fill="white"/>
<path d="M223.7 270.992C224.021 267.449 223.057 264.227 221.289 261.651C220.807 260.523 197.983 235.56 190.269 226.38C188.661 224.448 186.411 223.32 184 223.32H136.443C133.5 240.838 127.906 267.932 127.906 269.703C127.906 277.112 133.21 282.909 139.8 282.909C145.908 282.909 150.89 277.917 151.694 271.314H151.855C157.283 264.906 154.237 264.906 160.345 264.906C166.452 264.906 174.839 277.917 175.642 271.314H175.803C176.607 277.917 181.589 282.909 187.697 282.909C193.805 282.909 198.787 277.756 199.591 271.314H199.752" fill="#E90029"/>
<path d="M164.07 282.909C170.178 282.909 174.88 277.852 175.684 271.249L167.767 223.159H152.337L151.649 271.249C152.292 277.852 157.963 282.909 164.07 282.909Z" fill="white"/>
<path d="M199.719 271.249C200.844 277.691 206.663 283.233 212.932 282.589C218.557 281.945 223.057 276.952 223.7 270.671C224.022 267.128 223.057 263.907 221.289 261.33C220.807 260.203 205.86 240.233 197.341 226.06C196.055 223.966 193.484 223 191.073 223H182.072L199.719 271.249Z" fill="white"/>
</g>
</svg>
