<svg width="444" height="546" viewBox="0 0 444 546" fill="none" xmlns="http://www.w3.org/2000/svg">
<rect width="350" height="473" rx="12" fill="#EAEAEA"/>
<g clip-path="url(#clip0)">
<path d="M121.053 545.023L33.1925 544.557C29.5911 544.557 26.7099 541.45 26.7099 537.567V382.851C26.7099 381.142 25.5251 367.938 36.3836 367.938H243.647C251.282 367.938 257.477 374.618 257.477 382.851V529.8C257.477 538.033 128.688 545.023 121.053 545.023Z" fill="#726F6F"/>
<path d="M303.497 545.023H107.326V378.657H303.659C308.018 378.657 311.409 382.075 311.409 386.113V537.567C311.409 541.761 307.857 545.023 303.497 545.023Z" fill="#999999"/>
<path d="M71.8259 367.783L71.1035 437.4L314.968 437.916V435.821V368.249L71.8259 367.783ZM131.674 380.366H167.375L131.674 416.87V380.366ZM210.03 416.404L174.793 380.366H210.03V416.404ZM223.475 380.366H259.33L223.475 416.87V380.366ZM170.929 396.21L198.13 423.705H144.038L170.929 396.21ZM235.839 423.705L262.731 396.21L289.931 423.705H235.839ZM301.367 415.938L266.594 380.366H301.367V415.938Z" fill="#726F6F"/>
<path d="M222.858 475.996L222.549 546.674H276.95V474.443C276.95 470.715 274.013 467.763 270.304 467.763H230.431C230.431 467.763 222.549 467.452 222.858 475.996Z" fill="#DCDCDC"/>
<path fill-rule="evenodd" clip-rule="evenodd" d="M49.6457 470.067L49.6574 466.806C49.465 460.126 54.3717 460.126 54.3717 460.126H79.1938C81.5029 460.126 83.3308 463.077 83.3308 466.805V470.067H83.331V520.63C83.331 520.652 83.331 520.674 83.3308 520.696V521.249L83.3127 521.249C82.987 526.615 78.4243 526.614 78.4243 526.614H53.6022C50.5809 526.614 49.4764 523.882 49.4653 520.527L49.4648 520.527L49.4652 520.428L49.4652 470.067H49.6457Z" fill="#DCDCDC"/>
<path d="M162.43 475.996L162.275 546.674H216.676V474.443C216.676 470.715 213.74 467.763 210.031 467.763H170.003C170.003 467.763 162.275 467.452 162.43 475.996Z" fill="#DCDCDC"/>
<path d="M134.611 379.865H134.111V380.365V416.87V418.096L134.969 417.219L170.669 380.715L171.5 379.865H170.312H134.611ZM212.61 416.753L213.467 417.63V416.404V380.365V379.865H212.967H177.73H176.542L177.373 380.715L212.61 416.753ZM226.413 379.865H225.913V380.365V416.87V418.092L226.769 417.22L262.624 380.716L263.46 379.865H262.268H226.413ZM174.222 395.858L173.864 395.497L173.509 395.86L146.618 423.355L145.787 424.204H146.975H201.067H202.265L201.422 423.353L174.222 395.858ZM238.419 423.355L237.588 424.204H238.777H292.868H294.066L293.224 423.353L266.023 395.858L265.666 395.497L265.31 395.86L238.419 423.355ZM304.103 416.288L304.959 417.16V415.938V380.365V379.865H304.459H269.531H268.34L269.175 380.716L304.103 416.288ZM121.82 373.375C121.82 370.853 123.917 368.749 126.42 368.749H312.341C315.154 368.749 317.405 371.008 317.405 373.841V379.589V380.365V423.549V429.297C317.405 432.751 314.535 435.631 311.105 435.631H304.459H134.766H126.266C123.763 435.631 121.82 433.683 121.82 431.161V379.433V373.375Z" fill="#999999" stroke="#726F6F"/>
<mask id="path-9-inside-1" fill="white">
<path d="M311.104 437.064H304.459H134.92C134.92 437.064 134.766 437.064 134.611 437.064H126.111C123.02 437.064 120.393 434.578 120.393 431.316V379.589C120.393 379.434 120.393 379.434 120.393 379.278V373.375C120.547 370.113 123.174 367.473 126.42 367.473H312.186C315.741 367.473 318.523 370.269 318.523 373.841V429.452C318.523 431.472 317.75 433.336 316.359 434.889C314.968 436.287 313.113 437.064 311.104 437.064ZM134.611 435.51H304.304H310.95C312.495 435.51 314.041 434.889 315.277 433.802C316.359 432.714 317.132 431.161 317.132 429.452V373.841C317.132 371.201 314.968 369.026 312.341 369.026H126.42C123.947 369.026 122.093 371.045 122.093 373.375V379.434C122.093 379.589 122.093 379.589 122.093 379.744V431.316C122.093 433.646 123.947 435.51 126.265 435.51H134.456H134.611ZM292.868 424.481H238.776C238.467 424.481 238.158 424.326 238.003 424.015C237.849 423.705 238.003 423.394 238.158 423.239L265.049 395.744C265.204 395.589 265.358 395.589 265.513 395.589C265.667 395.589 265.976 395.744 265.976 395.744L293.177 423.239C293.331 423.394 293.486 423.705 293.331 424.015C293.486 424.326 293.177 424.481 292.868 424.481ZM240.631 422.928H291.168L265.822 397.297L240.631 422.928ZM201.066 424.481H146.975C146.666 424.481 146.357 424.326 146.202 424.015C146.047 423.705 146.202 423.394 146.357 423.239L173.248 395.744C173.402 395.589 173.557 395.589 173.712 395.589C174.021 395.589 174.175 395.744 174.175 395.744L201.376 423.239C201.53 423.394 201.685 423.705 201.53 424.015C201.376 424.326 201.376 424.481 201.066 424.481ZM148.829 422.928H199.366L174.021 397.297L148.829 422.928ZM226.412 417.647C226.258 417.647 226.258 417.647 226.103 417.647C225.794 417.491 225.64 417.181 225.64 416.87V380.366C225.64 379.9 225.949 379.589 226.412 379.589H262.113C262.422 379.589 262.731 379.744 262.886 380.055C263.04 380.366 262.885 380.676 262.731 380.832L227.03 417.336C226.876 417.491 226.721 417.647 226.412 417.647ZM227.185 381.142V415.006L260.413 381.142H227.185ZM134.611 417.647C134.456 417.647 134.456 417.647 134.302 417.647C133.993 417.491 133.838 417.181 133.838 416.87V380.366C133.838 379.9 134.147 379.589 134.611 379.589H170.311C170.621 379.589 170.93 379.744 171.084 380.055C171.239 380.366 171.084 380.676 170.93 380.832L135.229 417.336C135.075 417.491 134.92 417.647 134.611 417.647ZM135.384 381.142V415.006L168.611 381.142H135.384ZM212.967 417.025C212.812 417.025 212.503 416.87 212.503 416.87L177.266 380.832C177.112 380.676 176.957 380.366 177.112 380.055C177.266 379.744 177.575 379.589 177.884 379.589H213.121C213.585 379.589 213.894 379.9 213.894 380.366V416.404C213.894 416.715 213.739 417.025 213.43 417.181C213.276 417.025 213.121 417.025 212.967 417.025ZM179.584 381.142L212.348 414.54V381.142H179.584ZM304.459 416.715C304.304 416.715 303.995 416.559 303.995 416.559L269.067 380.832C268.913 380.676 268.758 380.366 268.913 380.055C269.067 379.744 269.376 379.589 269.686 379.589H304.459C304.922 379.589 305.232 379.9 305.232 380.366V415.938C305.232 416.249 305.077 416.559 304.768 416.715C304.613 416.715 304.459 416.715 304.459 416.715ZM271.386 381.142L303.686 414.074V381.142H271.386Z"/>
</mask>
<path d="M311.104 437.064H304.459H134.92C134.92 437.064 134.766 437.064 134.611 437.064H126.111C123.02 437.064 120.393 434.578 120.393 431.316V379.589C120.393 379.434 120.393 379.434 120.393 379.278V373.375C120.547 370.113 123.174 367.473 126.42 367.473H312.186C315.741 367.473 318.523 370.269 318.523 373.841V429.452C318.523 431.472 317.75 433.336 316.359 434.889C314.968 436.287 313.113 437.064 311.104 437.064ZM134.611 435.51H304.304H310.95C312.495 435.51 314.041 434.889 315.277 433.802C316.359 432.714 317.132 431.161 317.132 429.452V373.841C317.132 371.201 314.968 369.026 312.341 369.026H126.42C123.947 369.026 122.093 371.045 122.093 373.375V379.434C122.093 379.589 122.093 379.589 122.093 379.744V431.316C122.093 433.646 123.947 435.51 126.265 435.51H134.456H134.611ZM292.868 424.481H238.776C238.467 424.481 238.158 424.326 238.003 424.015C237.849 423.705 238.003 423.394 238.158 423.239L265.049 395.744C265.204 395.589 265.358 395.589 265.513 395.589C265.667 395.589 265.976 395.744 265.976 395.744L293.177 423.239C293.331 423.394 293.486 423.705 293.331 424.015C293.486 424.326 293.177 424.481 292.868 424.481ZM240.631 422.928H291.168L265.822 397.297L240.631 422.928ZM201.066 424.481H146.975C146.666 424.481 146.357 424.326 146.202 424.015C146.047 423.705 146.202 423.394 146.357 423.239L173.248 395.744C173.402 395.589 173.557 395.589 173.712 395.589C174.021 395.589 174.175 395.744 174.175 395.744L201.376 423.239C201.53 423.394 201.685 423.705 201.53 424.015C201.376 424.326 201.376 424.481 201.066 424.481ZM148.829 422.928H199.366L174.021 397.297L148.829 422.928ZM226.412 417.647C226.258 417.647 226.258 417.647 226.103 417.647C225.794 417.491 225.64 417.181 225.64 416.87V380.366C225.64 379.9 225.949 379.589 226.412 379.589H262.113C262.422 379.589 262.731 379.744 262.886 380.055C263.04 380.366 262.885 380.676 262.731 380.832L227.03 417.336C226.876 417.491 226.721 417.647 226.412 417.647ZM227.185 381.142V415.006L260.413 381.142H227.185ZM134.611 417.647C134.456 417.647 134.456 417.647 134.302 417.647C133.993 417.491 133.838 417.181 133.838 416.87V380.366C133.838 379.9 134.147 379.589 134.611 379.589H170.311C170.621 379.589 170.93 379.744 171.084 380.055C171.239 380.366 171.084 380.676 170.93 380.832L135.229 417.336C135.075 417.491 134.92 417.647 134.611 417.647ZM135.384 381.142V415.006L168.611 381.142H135.384ZM212.967 417.025C212.812 417.025 212.503 416.87 212.503 416.87L177.266 380.832C177.112 380.676 176.957 380.366 177.112 380.055C177.266 379.744 177.575 379.589 177.884 379.589H213.121C213.585 379.589 213.894 379.9 213.894 380.366V416.404C213.894 416.715 213.739 417.025 213.43 417.181C213.276 417.025 213.121 417.025 212.967 417.025ZM179.584 381.142L212.348 414.54V381.142H179.584ZM304.459 416.715C304.304 416.715 303.995 416.559 303.995 416.559L269.067 380.832C268.913 380.676 268.758 380.366 268.913 380.055C269.067 379.744 269.376 379.589 269.686 379.589H304.459C304.922 379.589 305.232 379.9 305.232 380.366V415.938C305.232 416.249 305.077 416.559 304.768 416.715C304.613 416.715 304.459 416.715 304.459 416.715ZM271.386 381.142L303.686 414.074V381.142H271.386Z" fill="#999999" stroke="#726F6F" stroke-width="2" mask="url(#path-9-inside-1)"/>
</g>
<g clip-path="url(#clip1)">
<path d="M248.524 477.441L228.875 463.241H192.384L214.014 478.927H178.679L157.049 463.241H120.393L140.207 477.606C141.363 478.432 142.023 479.753 142.188 481.074C142.188 492.137 150.114 499.072 160.186 499.072C169.433 499.072 178.184 481.074 178.184 481.074V481.734C179.34 491.641 187.43 499.072 196.677 499.072C205.924 499.072 213.519 491.476 214.675 481.569H214.84C215.996 491.476 223.591 499.072 232.838 499.072C242.084 499.072 249.845 491.311 250.836 481.404C250.836 481.404 250.836 481.404 250.836 481.239C250.67 479.753 249.845 478.432 248.524 477.441Z" fill="#E90029"/>
<path d="M140.537 477.938C141.528 478.598 142.023 479.754 142.188 480.91C142.188 481.075 142.188 481.24 142.188 481.24C142.188 492.303 150.114 499.238 160.186 499.238C169.433 499.238 177.028 491.642 178.184 481.735C178.349 481.735 178.514 478.763 178.679 478.763L140.537 477.938Z" fill="#FDEFE1"/>
<path d="M214.84 481.405C214.84 492.467 224.582 499.402 234.654 499.402C239.773 499.402 244.231 496.43 247.203 492.467C253.643 484.212 249.845 478.763 249.845 478.763C244.231 478.763 214.18 478.928 214.18 478.928L214.84 481.405Z" fill="#FDEFE1"/>
<path d="M222.601 456.637H127.163C123.531 456.637 120.559 459.609 120.559 463.241H229.041C229.206 459.609 226.234 456.637 222.601 456.637Z" fill="#C40029"/>
<path d="M193.54 463.241H157.049L178.679 478.927L214.345 479.093L193.54 463.241Z" fill="#FDEFE1"/>
</g>
<g clip-path="url(#clip2)">
<path d="M320.221 477.441L300.572 463.241H264.081L285.712 478.927H250.376L228.746 463.241H192.09L211.904 477.606C213.06 478.432 213.72 479.753 213.885 481.074C213.885 492.137 221.811 499.072 231.883 499.072C241.13 499.072 249.881 481.074 249.881 481.074V481.734C251.037 491.641 259.128 499.072 268.374 499.072C277.621 499.072 285.216 491.476 286.372 481.569H286.537C287.693 491.476 295.288 499.072 304.535 499.072C313.782 499.072 321.542 491.311 322.533 481.404C322.533 481.404 322.533 481.404 322.533 481.239C322.368 479.753 321.542 478.432 320.221 477.441Z" fill="#E90029"/>
<path d="M212.234 477.938C213.225 478.598 213.72 479.754 213.886 480.91C213.886 481.075 213.886 481.24 213.886 481.24C213.886 492.303 221.811 499.238 231.883 499.238C241.13 499.238 248.725 491.642 249.881 481.735C250.046 481.735 250.211 478.763 250.377 478.763L212.234 477.938Z" fill="#FDEFE1"/>
<path d="M286.537 481.405C286.537 492.467 296.279 499.402 306.352 499.402C311.47 499.402 315.928 496.43 318.901 492.467C325.34 484.212 321.542 478.763 321.542 478.763C315.928 478.763 285.877 478.928 285.877 478.928L286.537 481.405Z" fill="#FDEFE1"/>
<path d="M294.299 456.637H198.861C195.228 456.637 192.256 459.609 192.256 463.241H300.738C300.903 459.609 297.931 456.637 294.299 456.637Z" fill="#C40029"/>
<path d="M265.237 463.241H228.746L250.377 478.927L286.042 479.093L265.237 463.241Z" fill="#FDEFE1"/>
</g>
<path d="M315.573 259.038L269.361 248.201H269.115C267.149 247.462 264.937 246.969 262.97 246.969C263.216 244.014 262.97 241.058 262.479 238.103C265.674 238.103 268.87 238.841 271.819 239.827L318.031 250.664C319.014 250.91 319.751 251.403 320.243 252.142C320.734 252.881 321.226 253.866 321.226 254.605C321.226 255.097 321.226 255.59 320.98 256.083C320.734 257.314 319.997 258.299 319.014 258.792C317.785 259.284 316.556 259.531 315.573 259.038Z" fill="#700B13"/>
<path d="M218.971 254.11L223.887 245.736C226.1 228.003 222.412 211.993 222.412 211.993C222.167 204.604 237.161 197.954 240.356 212.486C241.585 218.15 243.06 223.815 244.289 228.495C244.289 228.495 251.663 220.86 257.317 226.771C257.808 227.264 258.3 228.003 258.792 228.741C261.25 226.771 266.166 224.062 270.344 228.249C271.573 229.48 272.311 230.958 272.557 232.682L274.523 241.549C275.506 246.968 274.769 252.879 272.065 257.805L262.233 275.292L245.764 309.282C233.719 341.794 183.821 310.513 194.145 293.765L218.971 254.11Z" fill="#C25D87"/>
<path fill-rule="evenodd" clip-rule="evenodd" d="M194.145 293.766C183.821 310.515 233.719 341.549 245.764 309.283L262.233 275.294L272.065 257.806C274.769 252.88 275.752 247.216 274.523 241.551L272.557 232.684C272.065 230.96 271.573 229.236 270.344 228.25C266.657 224.556 262.479 226.28 259.775 228.004C259.283 228.25 259.037 228.497 258.791 228.743C258.546 228.25 258.3 228.004 258.054 227.511C257.808 227.265 257.563 227.019 257.317 226.773C252.892 222.339 247.484 225.787 245.272 227.511C244.535 228.004 244.289 228.497 244.289 228.497C244.043 228.004 244.043 227.511 243.797 227.019C243.013 222.076 242.34 216.713 241.111 211.54C237.915 197.009 221.21 204.516 222.167 211.995C222.167 211.995 225.854 227.758 223.641 245.738L218.725 254.112L194.145 293.766ZM208.156 260.269C211.351 260.762 213.809 260.516 216.021 259.531C218.234 258.545 219.463 256.821 220.2 254.358L225.116 245.984C225.116 245.738 225.362 245.738 225.362 245.491C226.591 236.378 226.099 228.004 225.362 221.6C225.116 218.398 224.625 215.935 224.379 214.211C224.133 213.226 224.133 212.733 223.887 212.241C223.887 211.995 223.887 211.748 223.887 211.748C223.887 210.517 224.625 209.039 225.854 207.807C227.083 206.576 228.803 205.591 230.524 205.344C232.245 205.098 234.211 205.344 235.686 206.33C237.161 207.315 238.636 209.285 239.373 212.733C240.602 218.398 241.784 224.063 243.013 228.743C243.259 229.236 243.797 231.195 244.289 231.441C244.623 230.27 245.272 229.728 245.518 229.482C245.518 229.482 245.518 229.482 245.764 229.236C246.01 228.989 246.255 228.743 246.501 228.497C247.239 228.004 248.222 227.265 249.451 226.773C250.68 226.28 251.909 226.034 253.138 226.034C254.367 226.034 255.596 226.526 256.825 227.758C257.317 228.25 257.563 228.743 257.808 229.482C258.054 229.728 258.3 230.221 258.546 230.221C259.037 230.221 259.283 230.221 259.529 229.974C260.758 228.989 262.479 228.004 264.199 227.758C265.92 227.511 267.641 227.758 269.361 229.482C270.344 230.467 270.836 231.699 271.328 233.423L273.294 242.29C274.277 247.462 273.54 252.88 271.082 257.56L261.25 275.048L244.781 309.037C241.831 316.672 236.915 320.613 231.016 321.845C225.116 323.076 218.479 321.845 212.334 319.135C206.189 316.18 200.781 311.993 197.34 307.559C194.145 302.88 193.161 298.446 195.374 294.998C195.62 294.752 195.62 294.259 195.62 294.013L194.391 294.505C195.62 294.013 195.62 294.013 195.62 294.013L195.128 292.289C194.882 291.303 194.39 289.579 193.653 287.855" fill="#50314D"/>
<path d="M248.713 298.202L268.014 367.822C253.066 367.822 238.837 367.329 179.106 367.822C176.648 298.858 191.194 262.981 191.194 262.981C191.686 257.069 193.898 251.158 197.585 246.478L209.138 231.947C213.317 229.237 219.216 230.961 221.182 235.641L248.713 298.202Z" fill="#C25D87"/>
<path fill-rule="evenodd" clip-rule="evenodd" d="M261.003 245.493L259.283 228.991H258.3L260.02 245.493C260.266 248.203 259.774 250.912 258.545 253.375L250.68 268.646L251.417 269.138L259.283 253.868C260.758 251.405 261.249 248.449 261.003 245.493Z" fill="#50314D"/>
<path d="M251.662 269.629L250.188 268.89L258.299 253.373C259.528 250.91 260.02 248.201 259.774 245.738L257.808 228.989L259.528 228.743L261.495 245.738C261.741 248.694 261.249 251.649 260.02 254.358L251.662 269.629ZM251.171 268.644L259.037 253.866C260.266 251.157 260.757 248.447 260.511 245.492H260.757H260.511L258.791 229.236H258.545L260.266 245.492C260.512 248.201 260.02 250.91 258.791 253.62L251.171 268.644Z" fill="#50314D"/>
<path fill-rule="evenodd" clip-rule="evenodd" d="M246.255 244.751L244.534 228.742L243.551 228.249L245.271 244.751C245.517 247.461 245.026 250.17 243.797 252.633L238.635 264.209L239.618 264.702L244.78 253.125C246.009 250.662 246.746 247.707 246.255 244.751Z" fill="#50314D"/>
<path d="M239.618 265.194L238.635 264.702C238.389 264.702 238.389 264.455 238.389 264.209L243.551 252.633C244.78 250.17 245.271 247.461 245.025 244.751L243.059 228.249C243.059 228.003 243.059 228.003 243.305 228.003H243.551L244.534 228.496L244.78 228.742L246.5 244.751C246.746 247.707 246.254 250.663 245.025 253.372L239.864 264.948C240.109 264.948 239.864 264.948 239.618 265.194C239.864 265.194 239.864 265.194 239.618 265.194ZM239.372 264.209L244.534 253.126C245.763 250.416 246.255 247.707 246.009 244.751L244.288 228.988L244.042 228.742L245.763 244.505C246.009 247.214 245.517 249.924 244.288 252.633L239.372 264.209Z" fill="#50314D"/>
<path d="M227.083 275.295C222.412 271.108 219.708 265.689 219.463 259.778C218.971 253.867 224.973 251.021 223.006 234.765C220.302 236.489 219.954 235.64 217.988 238.103C212.826 244.261 210.122 252.389 210.614 260.517C211.105 268.645 214.792 276.28 220.692 281.699L258.054 321.107C258.791 321.846 259.529 322.338 260.512 322.338C261.495 322.585 262.479 322.338 263.216 322.092C263.708 321.846 263.953 321.599 264.445 321.353C265.182 320.614 265.674 319.383 265.92 318.151C265.92 316.92 265.428 315.934 264.691 314.949L227.083 275.295Z" fill="#8A1332"/>
<path d="M440.873 364.613L344.422 428.881C337.619 433.263 323.771 434.48 319.641 427.664L249.67 310.812C245.54 304.239 242.139 293.041 248.456 288.659L336.89 229.746C338.348 228.772 340.048 228.285 341.992 228.529C343.693 228.772 345.393 229.746 346.365 230.963L430.912 339.782L442.331 356.092C442.817 356.823 443.303 357.553 443.303 358.283C443.546 359.014 443.546 359.987 443.303 360.718C443.06 361.448 442.817 362.178 442.331 362.909C442.088 363.639 441.602 364.126 440.873 364.613Z" fill="#E4122C"/>
<path d="M344.421 427.396L303.119 454.905C302.633 455.149 302.148 455.392 301.662 455.636C301.176 455.636 300.447 455.636 299.961 455.636C299.475 455.392 298.989 455.392 298.503 454.905C298.017 454.662 297.775 454.175 297.289 453.688C295.102 449.793 232.906 345.356 214.928 313.709C214.442 312.979 214.442 311.761 214.685 311.031C214.928 310.057 215.414 309.327 216.386 308.84L253.557 284.009C254.286 283.522 255.258 283.279 255.987 283.522C256.959 283.766 257.687 284.009 258.173 284.739C258.173 284.739 341.992 414.007 345.879 419.606C346.365 420.336 346.608 421.067 346.851 421.797C347.094 422.527 347.094 423.258 346.851 423.988C346.608 424.718 346.365 425.449 345.879 426.179C345.393 426.909 345.15 426.909 344.421 427.396Z" fill="#8A1332"/>
<path fill-rule="evenodd" clip-rule="evenodd" d="M337.132 333.957C344.907 329.088 345.636 318.62 341.992 313.021C339.319 308.882 334.217 309.612 330.573 312.047C322.07 317.403 322.313 327.871 325.714 332.983C328.143 336.878 333.488 336.148 337.132 333.957ZM362.885 299.631C366.53 305.23 365.558 315.698 358.026 320.567C354.382 323.002 349.037 323.732 346.608 319.594C343.449 314.481 343.206 304.013 351.467 298.658C355.111 296.223 360.213 295.493 362.885 299.631ZM354.625 348.563C361.428 344.911 366.287 338.825 368.716 331.522L374.061 335.661L368.23 320.324L355.354 328.601L361.671 329.088C360.699 332.496 358.998 335.661 356.812 338.582C354.625 341.26 351.71 343.694 348.794 345.398C345.879 346.859 342.72 347.589 339.562 347.346C336.404 347.102 333.245 346.372 330.573 344.668L330.087 344.911C333.245 348.076 337.375 350.267 341.749 350.997C346.122 351.728 350.738 350.754 354.625 348.563Z" fill="white"/>
<path d="M244.779 259.777H244.534C238.634 259.038 233.472 256.083 229.785 251.403C226.098 246.723 224.132 240.319 224.623 231.206C224.869 228.004 217.987 226.773 216.512 234.162C215.037 242.043 217.987 250.418 222.903 256.821C227.819 263.225 235.193 267.412 243.059 268.644L291.483 278.003C292.466 278.25 293.449 278.25 294.186 277.757C295.17 277.511 295.661 276.772 296.153 276.033C296.399 275.54 296.644 275.048 296.644 274.801C296.89 273.57 296.644 272.338 296.153 271.353C295.415 270.368 294.432 269.629 293.449 269.383L244.779 259.777Z" fill="#EF8475"/>
<path d="M316.964 254.849L280.093 244.012C278.127 243.273 276.978 243.016 274.766 243.016C274.766 243.016 273.889 238.463 272.719 233.78C275.914 233.78 279.11 234.406 282.305 235.391L319.176 246.229C320.159 246.475 320.897 246.967 321.634 247.46C322.372 248.199 322.617 248.938 322.863 249.923C322.863 250.416 322.863 250.908 322.863 251.401C322.617 252.632 321.88 253.618 320.897 254.11C319.422 254.849 318.193 255.095 316.964 254.849Z" fill="#EF8475"/>
<defs>
<clipPath id="clip0">
<rect width="318.677" height="178.327" fill="white" transform="translate(0 367.473)"/>
</clipPath>
<clipPath id="clip1">
<rect width="130.773" height="42.7655" fill="white" transform="translate(120.393 456.637)"/>
</clipPath>
<clipPath id="clip2">
<rect width="130.773" height="42.7655" fill="white" transform="translate(192.09 456.637)"/>
</clipPath>
</defs>
</svg>
