<svg width="151" height="80" viewBox="0 0 151 80" fill="none" xmlns="http://www.w3.org/2000/svg">
<path fill-rule="evenodd" clip-rule="evenodd" d="M0 47.2726H11.6334L18.1432 14.5453H6.50977L0 47.2726ZM7.25736 9.09091H18.1904L19.9576 5.25261e-06H9.00999L7.25736 9.09091ZM16.329 56.3637H27.819L34.7933 21.0364H43.1754L44.4926 14.5291H36.0379L36.3246 13.0255C36.8652 10.2364 37.7433 7.00547 42.0759 7.00547C44.6432 7.00547 47.1052 7.28547 49.491 8.32547L50.801 1.4491C48.1458 0.487494 45.3437 -0.00287764 42.5204 1.27028e-05C33.2928 1.27028e-05 26.93 5.67274 24.6023 14.5291H20.6108L19.3643 21.0346H23.2959L16.329 56.3637ZM53.3953 47.2728C66.8612 47.2728 76.2013 34.3401 76.2013 23.7764C76.2013 16.091 69.2978 12.7273 62.7336 12.7273C47.956 12.7273 39.915 26.6492 39.915 36.2255C39.915 43.9128 46.891 47.2728 53.3953 47.2728ZM112.488 23.7764C112.488 34.3401 103.148 47.2728 89.689 47.2728C83.1883 47.2728 76.2014 43.9128 76.2014 36.2255C76.2014 26.6492 84.2515 12.7273 99.0092 12.7273C105.572 12.7273 112.488 16.091 112.488 23.7764ZM130.212 46.5418H141.509L150.588 5.72205e-06H139.218L136.515 13.8291C135.041 13.5218 133.508 13.2818 131.921 13.2818C120.794 13.2818 110.673 28.0691 110.673 38.6346C110.673 42.9818 113.382 47.2727 117.969 47.2727C124.5 47.2727 129.018 43.9327 130.901 40.8127H131.609L130.212 46.5418ZM96.7508 69.6993C96.7512 69.6989 96.7517 69.6985 96.7522 69.6981H96.7503L96.7508 69.6993ZM64.6896 79.8981C76.9791 80.6762 88.2908 76.9403 96.7508 69.6993L100.216 79.4308L105.23 54.609L81.9401 54.5453L89.7761 60.5163C82.7837 67.2653 70.04 71.9963 59.6403 70.8399C48.9921 69.6526 40.5029 62.4326 37.0176 54.6072H36.2864C38.4419 66.8617 49.1899 78.9417 64.6896 79.8981Z" fill="#D9293A"/>
</svg>
