<svg width="27" height="19" viewBox="0 0 27 19" fill="none" xmlns="http://www.w3.org/2000/svg">
<path d="M25.8857 2.87322C25.5903 1.74221 24.7198 0.851593 23.6144 0.549329C21.6112 0 13.578 0 13.578 0C13.578 0 5.54471 0 3.5414 0.549329C2.43603 0.851593 1.56552 1.74221 1.2701 2.87322C0.733398 4.92304 0.733398 9.2 0.733398 9.2C0.733398 9.2 0.733398 13.4768 1.2701 15.5268C1.56552 16.6578 2.43603 17.5484 3.5414 17.8508C5.54471 18.4 13.578 18.4 13.578 18.4C13.578 18.4 21.6112 18.4 23.6144 17.8508C24.7198 17.5484 25.5903 16.6578 25.8857 15.5268C26.4225 13.4768 26.4225 9.2 26.4225 9.2C26.4225 9.2 26.4225 4.92304 25.8857 2.87322Z" fill="#717171"/>
<path d="M11.1699 13.6001V5.6001L17.5922 9.60025L11.1699 13.6001Z" fill="white"/>
</svg>
