<svg width="48" height="41" viewBox="0 0 48 41" fill="none" xmlns="http://www.w3.org/2000/svg">
<path d="M10.7806 20.1604C19.1152 20.1604 24.8983 12.6083 24.8983 6.44805C24.8983 1.96181 20.623 0 16.559 0C7.41364 0 2.4375 8.12116 2.4375 13.7133C2.4375 18.1995 6.75634 20.1604 10.7806 20.1604Z" fill="#EA1D2C"/>
<path d="M33.046 20.1604C41.3806 20.1604 47.1637 12.6083 47.1637 6.44805C47.1637 1.96181 42.8799 0 38.8196 0C29.679 0 24.6953 8.12116 24.6953 13.7133C24.6953 18.1995 29.0189 20.1604 33.0422 20.1604" fill="#EA1D2C"/>
<path d="M36.8948 34.2758C31.7331 38.6357 24.8324 40.8742 17.3322 40.4121C7.87526 39.8357 1.31838 32.5723 0 25.2046H0.448933C2.57615 29.9086 7.75498 34.2518 14.2541 34.9657C20.5997 35.6603 28.3755 32.8158 32.6423 28.7556L27.8556 25.1641L42.0699 25.2046L39.0107 40.1317L36.8948 34.2758Z" fill="#EA1D2C"/>
</svg>
