<svg width="24" height="24" viewBox="0 0 24 24" fill="none" xmlns="http://www.w3.org/2000/svg">
<rect x="1" y="1" width="22" height="22" rx="7" stroke="#717171" stroke-width="2"/>
<path d="M18.5588 3.9634C17.7419 3.9634 17.0791 4.62312 17.0791 5.43747C17.0791 6.25155 17.7419 6.91204 18.5588 6.91204C19.3757 6.91204 20.0385 6.25155 20.0385 5.43747C20.0385 4.62338 19.3757 3.96289 18.5588 3.96289V3.9634Z" fill="#717171"/>
<path d="M11.976 5.68652C8.47889 5.68652 5.64355 8.51202 5.64355 11.997C5.64355 15.482 8.47889 18.3062 11.976 18.3062C15.4731 18.3062 18.3074 15.482 18.3074 11.997C18.3074 8.51202 15.4728 5.68652 11.9757 5.68652H11.976Z" fill="#717171"/>
<path d="M11.9765 7.90088C14.2464 7.90088 16.0868 9.73463 16.0868 11.9969C16.0868 14.259 14.2464 16.093 11.9765 16.093C9.70634 16.093 7.86621 14.259 7.86621 11.9969C7.86621 9.73463 9.70634 7.90088 11.9765 7.90088V7.90088Z" fill="white"/>
</svg>
