<svg width="24" height="20" viewBox="0 0 24 20" fill="none" xmlns="http://www.w3.org/2000/svg">
<path d="M11.8517 5.1075L11.9023 5.93795L11.06 5.83627C7.99401 5.44646 5.3155 4.12451 3.0413 1.90432L1.92946 0.802698L1.64308 1.6162C1.03663 3.42964 1.42409 5.34477 2.68753 6.63282C3.36137 7.34464 3.20976 7.44633 2.04739 7.02263C1.64308 6.88705 1.28932 6.78536 1.25563 6.8362C1.1377 6.95484 1.54201 8.49711 1.86208 9.10724C2.30008 9.95464 3.19291 10.7851 4.16998 11.2766L4.99543 11.6664L4.01836 11.6833C3.07499 11.6833 3.0413 11.7003 3.14237 12.0562C3.47929 13.1578 4.81012 14.3272 6.29257 14.8357L7.33702 15.1916L6.42733 15.7339C5.07966 16.5135 3.49614 16.9542 1.91262 16.9881C1.15455 17.005 0.53125 17.0728 0.53125 17.1237C0.53125 17.2931 2.58646 18.2422 3.78252 18.6151C7.37071 19.7167 11.6327 19.2422 14.8335 17.3609C17.1077 16.022 19.3819 13.3612 20.4432 10.7851C21.0159 9.4123 21.5887 6.90399 21.5887 5.70068C21.5887 4.92107 21.6392 4.81938 22.5826 3.88724C23.1385 3.3449 23.6607 2.75172 23.7618 2.58224C23.9303 2.26023 23.9134 2.26023 23.0543 2.54835C21.6224 3.05679 21.4202 2.989 22.1278 2.22633C22.65 1.684 23.2733 0.701009 23.2733 0.412893C23.2733 0.362048 23.0206 0.446789 22.7342 0.599321C22.431 0.768801 21.7572 1.02302 21.2518 1.17555L20.3421 1.46367L19.5166 0.904386C19.0618 0.599321 18.4217 0.26036 18.0847 0.158672C17.2256 -0.0786008 15.9116 -0.0447047 15.1367 0.226464C13.0309 0.989126 11.7001 2.9551 11.8517 5.1075Z" fill="#717171"/>
</svg>
